<?xml version="1.0" encoding="UTF-8" standalone="no"?>
<svg
   xmlns:dc="http://purl.org/dc/elements/1.1/"
   xmlns:cc="http://creativecommons.org/ns#"
   xmlns:rdf="http://www.w3.org/1999/02/22-rdf-syntax-ns#"
   xmlns:svg="http://www.w3.org/2000/svg"
   xmlns="http://www.w3.org/2000/svg"
   xmlns:sodipodi="http://sodipodi.sourceforge.net/DTD/sodipodi-0.dtd"
   xmlns:inkscape="http://www.inkscape.org/namespaces/inkscape"
   viewBox="0 0 113.3544 160.00003"
   version="1.1"
   id="svg24"
   sodipodi:docname="logo-html-white2.svg"
   width="113.3544"
   height="160.00003"
   inkscape:version="0.92.5 (2060ec1f9f, 2020-04-08)">
  <metadata
     id="metadata30">
    <rdf:RDF>
      <cc:Work
         rdf:about="">
        <dc:format>image/svg+xml</dc:format>
        <dc:type
           rdf:resource="http://purl.org/dc/dcmitype/StillImage" />
        <dc:title>HTML5 Logo</dc:title>
      </cc:Work>
    </rdf:RDF>
  </metadata>
  <defs
     id="defs28" />
  <sodipodi:namedview
     pagecolor="#ffffff"
     bordercolor="#666666"
     borderopacity="1"
     objecttolerance="10"
     gridtolerance="10"
     guidetolerance="10"
     inkscape:pageopacity="0"
     inkscape:pageshadow="2"
     inkscape:window-width="1600"
     inkscape:window-height="844"
     id="namedview26"
     showgrid="false"
     fit-margin-top="0"
     fit-margin-left="0"
     fit-margin-right="0"
     fit-margin-bottom="0"
     inkscape:zoom="2.2"
     inkscape:cx="64.890619"
     inkscape:cy="80.000025"
     inkscape:window-x="0"
     inkscape:window-y="0"
     inkscape:window-maximized="1"
     inkscape:current-layer="svg24" />
  <title
     id="title2">HTML5 Logo</title>
  <path
     style="stroke-width:0.39062509;fill:#f9f9f9"
     inkscape:connector-curvature="0"
     d="m 10.546565,0 h 7.211564 v 7.1250016 h 6.596876 V 0 h 7.211877 v 21.576255 h -7.211564 v -7.225002 h -6.596877 v 7.225002 H 10.546877 V 0 Z"
     id="path12" />
  <path
     style="stroke-width:0.39062509;fill:#f9f9f9"
     inkscape:connector-curvature="0"
     d="M 41.050321,7.1550016 H 34.70157 V 0 H 54.614074 V 7.1550016 H 48.262511 V 21.576255 H 41.050634 V 7.1550016 Z"
     id="path14" />
  <path
     style="stroke-width:0.39062509;fill:#f9f9f9"
     inkscape:connector-curvature="0"
     d="m 57.774388,0 h 7.519689 L 69.919703,7.5812517 74.540641,0 h 7.522502 V 21.576255 H 74.881266 V 10.881877 l -4.961563,7.671565 H 69.79564 l -4.965001,-7.671565 v 10.694378 h -7.056251 z"
     id="path16" />
  <path
     style="stroke-width:0.39062509;fill:#f9f9f9"
     inkscape:connector-curvature="0"
     d="m 85.652206,0 h 7.213752 v 14.444378 h 10.141562 v 7.131877 H 85.652206 Z"
     id="path18" />
  <g
     id="g888">
    <path
       id="polygon22"
       transform="matrix(0.31250007,0,0,0.31250007,-23.322818,0)"
       style="fill:#f9f9f9;stroke-width:1.25"
       d="m 255.843,221.605 v 0.111 h 109.542 0.146 l 0.911,-10.207 2.069,-23.021 1.086,-12.183 H 255.843 v 28.204 z m 0,92.022 h 55.918 l -5.271,58.894 -50.647,13.67 v 47.244 l 93.094,-25.801 0.683,-7.672 10.671,-119.551 1.108,-12.194 h -12.237 -93.319 z m -78.424,22.706 h -21.01 l 6.362,71.301 93.02,25.823 0.209,-0.058 v -47.246 l -0.199,0.053 -50.574,-13.656 -3.233,-36.217 z m -35.287,-160.028 1.087,12.183 11.161,125.139 H 256 v -45.41 h -60.09 l -4.15,-46.501 H 256 v -45.411 h -0.157 z M 404.321,470.819 255.778,512 107.644,470.877 74.633,100.62 h 362.734 z"
       inkscape:connector-curvature="0" />
  </g>
</svg>
