<?xml version="1.0" encoding="UTF-8" standalone="no"?>
<svg
   xmlns:dc="http://purl.org/dc/elements/1.1/"
   xmlns:cc="http://creativecommons.org/ns#"
   xmlns:rdf="http://www.w3.org/1999/02/22-rdf-syntax-ns#"
   xmlns:svg="http://www.w3.org/2000/svg"
   xmlns="http://www.w3.org/2000/svg"
   xmlns:sodipodi="http://sodipodi.sourceforge.net/DTD/sodipodi-0.dtd"
   xmlns:inkscape="http://www.inkscape.org/namespaces/inkscape"
   viewBox="0 0 113.3544 160.00003"
   version="1.1"
   id="svg24"
   sodipodi:docname="logo-html.svg"
   width="113.3544"
   height="160.00003"
   inkscape:version="0.92.5 (2060ec1f9f, 2020-04-08)">
  <metadata
     id="metadata30">
    <rdf:RDF>
      <cc:Work
         rdf:about="">
        <dc:format>image/svg+xml</dc:format>
        <dc:type
           rdf:resource="http://purl.org/dc/dcmitype/StillImage" />
        <dc:title>HTML5 Logo</dc:title>
      </cc:Work>
    </rdf:RDF>
  </metadata>
  <defs
     id="defs28" />
  <sodipodi:namedview
     pagecolor="#ffffff"
     bordercolor="#666666"
     borderopacity="1"
     objecttolerance="10"
     gridtolerance="10"
     guidetolerance="10"
     inkscape:pageopacity="0"
     inkscape:pageshadow="2"
     inkscape:window-width="1920"
     inkscape:window-height="1024"
     id="namedview26"
     showgrid="false"
     fit-margin-top="0"
     fit-margin-left="0"
     fit-margin-right="0"
     fit-margin-bottom="0"
     inkscape:zoom="0.5"
     inkscape:cx="-531.3228"
     inkscape:cy="80.000025"
     inkscape:window-x="0"
     inkscape:window-y="0"
     inkscape:window-maximized="1"
     inkscape:current-layer="svg24" />
  <title
     id="title2">HTML5 Logo</title>
  <g
     id="g850"
     transform="matrix(0.31250007,0,0,0.31250007,-23.322818,0)"
     style="stroke-width:1.25">
    <polygon
       id="polygon4"
       points="437.367,100.62 404.321,470.819 255.778,512 107.644,470.877 74.633,100.62 "
       style="fill:#e44d26;stroke-width:1.25" />
    <polygon
       id="polygon6"
       points="256,480.523 376.03,447.246 404.27,130.894 256,130.894 "
       style="fill:#f16529;stroke-width:1.25" />
    <polygon
       id="polygon8"
       points="191.76,221.716 256,221.716 256,176.305 255.843,176.305 142.132,176.305 143.219,188.488 154.38,313.627 256,313.627 256,268.217 195.91,268.217 "
       style="fill:#ebebeb;stroke-width:1.25" />
    <polygon
       id="polygon10"
       points="201.994,336.333 177.419,336.333 156.409,336.333 162.771,407.634 255.791,433.457 256,433.399 256,386.153 255.801,386.206 205.227,372.55 "
       style="fill:#ebebeb;stroke-width:1.25" />
    <path
       id="path12"
       d="m 108.382,0 h 23.077 v 22.8 h 21.11 V 0 h 23.078 V 69.044 H 152.57 v -23.12 h -21.11 v 23.12 H 108.383 V 0 Z"
       inkscape:connector-curvature="0"
       style="stroke-width:1.25" />
    <path
       id="path14"
       d="M 205.994,22.896 H 185.678 V 0 h 63.72 V 22.896 H 229.073 V 69.044 H 205.995 V 22.896 Z"
       inkscape:connector-curvature="0"
       style="stroke-width:1.25" />
    <path
       id="path16"
       d="m 259.511,0 h 24.063 L 298.376,24.26 313.163,0 h 24.072 V 69.044 H 314.253 V 34.822 l -15.877,24.549 h -0.397 L 282.091,34.822 v 34.222 h -22.58 z"
       inkscape:connector-curvature="0"
       style="stroke-width:1.25" />
    <path
       id="path18"
       d="m 348.72,0 h 23.084 v 46.222 h 32.453 V 69.044 H 348.72 Z"
       inkscape:connector-curvature="0"
       style="stroke-width:1.25" />
    <polygon
       id="polygon20"
       points="255.843,313.627 311.761,313.627 306.49,372.521 255.843,386.191 255.843,433.435 348.937,407.634 349.62,399.962 360.291,280.411 361.399,268.217 349.162,268.217 255.843,268.217 "
       style="fill:#ffffff;stroke-width:1.25" />
    <polygon
       id="polygon22"
       points="255.843,221.605 255.843,221.716 365.385,221.716 365.531,221.716 366.442,211.509 368.511,188.488 369.597,176.305 255.843,176.305 255.843,204.509 "
       style="fill:#ffffff;stroke-width:1.25" />
  </g>
</svg>
